# xmcd CD database file
#
# Track frame offsets:
#	150
#	25497
#	55487
#	80819
#	113399
#	140266
#	167015
#	200913
#	219246
#	238751
#
# Disc length: 3492 seconds
#
# Revision: 0
# Processed by: cddbd v1.5.1PL0 Copyright (c) Steve Scherf et al.
# Submitted via: CDex 1.51
#
DISCID=8d0da20a
DTITLE=Michelle Nicolle - What Kind of Fool
DYEAR=2005
DGENRE=Jazz
TTITLE0=What Kind of Fool Am I?
TTITLE1=Azure
TTITLE2=Slow Hot Wind
TTITLE3=Yours Is My Heart Alone
TTITLE4=Drop The Smile
TTITLE5=Secret Looks
TTITLE6=Midnight Sun
TTITLE7=Everything I Love
TTITLE8=Just For You
TTITLE9=Waltzing In The Clouds
EXTD=YEAR: 2005
EXTT0=
EXTT1=
EXTT2=
EXTT3=
EXTT4=
EXTT5=
EXTT6=
EXTT7=
EXTT8=
EXTT9=
PLAYORDER=
